PathFileType	4	(X/Y/Z)	1H_rest_fast_right.trc
DataRate	CameraRate	NumFrames	NumMarkers	Units	OrigDataRate	OrigDataStartFrame	OrigNumFrames
250.00	250.00	12	18	mm	250.00	21809	29078
Frame#	Time	c7	r_should	l_should	clavicle	r_upa	r_elb_l	r_elb_m	r_low	r_wri_l	r_wri_m	r_met	l_upa	l_elb_l	l_elb_m	l_low	l_wri_l	l_wri_m	l_met
	X1	Y1	Z1	X2	Y2	Z2	X3	Y3	Z3	X4	Y4	Z4	X5	Y5	Z5	X6	Y6	Z6	X7	Y7	Z7	X8	Y8	Z8	X9	Y9	Z9	X10	Y10	Z10	X11	Y11	Z11	X12	Y12	Z12	X13	Y13	Z13	X14	Y14	Z14	X15	Y15	Z15	X16	Y16	Z16	X17	Y17	Z17	X18	Y18	Z18
21809	87.23200	619.15509	1417.05615	279.17615	706.04718	1352.99475	411.71994	648.55652	1384.88403	98.41242	749.95471	1285.99707	236.33105	749.76624	1142.82703	459.92224	762.35870	1051.69141	471.53714	690.16669	1016.00995	424.55524	806.07855	872.11517	436.44955	818.63757	809.58832	400.85416	764.32568	784.66675	442.49872	874.00073	754.65417	415.62454	652.67395	1193.42163	21.09927	672.02924	1084.33472	14.32092	616.32208	1047.59888	74.28859	709.59070	917.81854	14.19287	738.74695	845.29651	43.92482	670.97998	823.24292	27.03705	765.56195	759.17639	15.84642
21810	87.23600	619.17053	1417.06445	279.13461	706.04767	1353.01025	411.68930	648.57733	1384.88452	98.36745	749.95844	1285.99109	236.30536	749.73425	1142.83972	459.92609	762.31165	1051.70898	471.56329	690.15594	1016.03076	424.55457	806.01257	872.11047	436.52795	818.58087	809.57880	400.95026	764.24347	784.65619	442.58554	873.93549	754.64172	415.76318	652.69281	1193.41040	21.07239	672.03650	1084.32703	14.29950	616.33905	1047.60645	74.27468	709.58661	917.81000	14.18072	738.73798	845.28491	43.92297	670.98260	823.25287	27.03017	765.54681	759.16376	15.84321
21811	87.24000	619.18066	1417.08179	279.08484	706.05316	1353.03784	411.65146	648.60419	1384.88843	98.32103	749.96350	1285.99744	236.27164	749.70532	1142.86011	459.92715	762.27203	1051.73401	471.57693	690.12976	1016.04462	424.52499	805.95477	872.11908	436.60196	818.50586	809.55896	401.02682	764.16583	784.66815	442.66730	873.83606	754.60284	415.86368	652.71509	1193.40942	21.03747	672.04773	1084.32764	14.27951	616.32410	1047.60168	74.22345	709.58606	917.80676	14.16784	738.71741	845.26965	43.90191	670.96320	823.24597	26.98607	765.53973	759.16119	15.83805
21812	87.24400	619.18665	1417.09705	279.03137	706.05994	1353.05957	411.61328	648.62860	1384.88867	98.27888	749.97565	1286.00305	236.24355	749.68256	1142.88525	459.91986	762.23779	1051.75867	471.58731	690.09857	1016.04938	424.48325	805.90588	872.13281	436.67010	818.41797	809.52704	401.09515	764.08417	784.68671	442.73471	873.70563	754.53210	415.94101	652.73511	1193.40588	21.00720	672.06238	1084.32520	14.26173	616.30029	1047.56885	74.16441	709.59320	917.80219	14.15754	738.69617	845.24902	43.87170	670.92987	823.21429	26.92217	765.54028	759.15692	15.83657
21813	87.24800	619.19464	1417.10352	278.97876	706.06207	1353.07263	411.57919	648.64917	1384.87927	98.24496	749.98785	1286.00452	236.22096	749.65961	1142.90906	459.91336	762.20593	1051.78271	471.59595	690.06036	1016.05060	424.45404	805.86145	872.14697	436.73569	818.32251	809.47931	401.16556	764.00031	784.71161	442.79849	873.57971	754.45593	416.03094	652.75671	1193.39221	20.98531	672.08350	1084.31494	14.24984	616.26611	1047.52124	74.11487	709.60437	917.78979	14.15117	738.67493	845.21863	43.84483	670.90576	823.16028	26.88015	765.54761	759.14203	15.84076
21814	87.25200	619.19989	1417.10364	278.92358	706.06030	1353.08960	411.54541	648.65826	1384.86707	98.20990	749.99493	1286.01099	236.19231	749.63672	1142.93262	459.90402	762.16791	1051.80762	471.59790	690.00946	1016.05084	424.45279	805.81793	872.15973	436.80466	818.24286	809.44171	401.24542	763.91229	784.73267	442.85458	873.47827	754.40997	416.14371	652.76855	1193.37744	20.96816	672.09973	1084.30078	14.23602	616.23547	1047.49377	74.09061	709.61847	917.78040	14.15002	738.67206	845.19159	43.83718	670.89514	823.11249	26.87019	765.55908	759.12732	15.84833
21815	87.25600	619.20227	1417.10669	278.87039	706.04486	1353.11218	411.50354	648.66663	1384.86182	98.16648	749.99854	1286.01660	236.15891	749.60846	1142.96472	459.89050	762.12415	1051.83643	471.60077	689.95844	1016.06952	424.47537	805.76306	872.17322	436.86838	818.18951	809.44458	401.33200	763.81946	784.75354	442.90805	873.40894	754.40936	416.28152	652.77527	1193.36353	20.94368	672.11591	1084.28784	14.22131	616.23175	1047.49463	74.09026	709.62952	917.77173	14.15007	738.69897	845.19934	43.84836	670.91125	823.09198	26.89400	765.56683	759.11627	15.85839
21816	87.26000	619.19830	1417.10901	278.82895	706.03320	1353.13733	411.46216	648.67786	1384.85913	98.11833	749.99774	1286.01843	236.13451	749.58093	1142.99170	459.87292	762.08472	1051.86438	471.59995	689.91650	1016.10663	424.51215	805.69708	872.17834	436.92911	818.15063	809.46649	401.42621	763.72186	784.76733	442.97314	873.37579	754.44409	416.44620	652.79266	1193.35608	20.91951	672.12805	1084.27686	14.20896	616.25830	1047.52515	74.10471	709.64404	917.75934	14.15262	738.74487	845.22430	43.88049	670.94916	823.10535	26.94746	765.58130	759.10724	15.87613
21817	87.26400	619.19440	1417.11536	278.80164	706.02228	1353.15442	411.42880	648.69116	1384.85669	98.08144	749.99005	1286.01611	236.11508	749.55121	1143.00977	459.86606	762.03857	1051.88855	471.61163	689.88525	1016.15381	424.55075	805.62701	872.17188	437.00272	818.12262	809.48987	401.52817	763.62122	784.77069	443.06201	873.35364	754.48181	416.61877	652.80963	1193.34607	20.89820	672.14404	1084.26733	14.20320	616.31470	1047.55151	74.11975	709.66113	917.74847	14.16105	738.78870	845.23486	43.92312	671.00391	823.13513	27.02278	765.60376	759.09448	15.90882
21818	87.26800	619.19940	1417.12402	278.77582	706.01526	1353.17102	411.40411	648.70630	1384.85571	98.04570	749.98499	1286.00940	236.09358	749.51727	1143.02283	459.86621	761.98688	1051.90442	471.63467	689.87067	1016.19043	424.57721	805.54712	872.15826	437.08057	818.09741	809.51819	401.63379	763.51453	784.77551	443.16690	873.29901	754.49524	416.77469	652.83276	1193.33838	20.87406	672.16718	1084.26160	14.20150	616.36725	1047.57361	74.13386	709.68842	917.74188	14.17739	738.82562	845.23962	43.96077	671.05933	823.16284	27.07278	765.63324	759.08911	15.94248
21819	87.27200	619.20569	1417.13806	278.74142	706.01343	1353.18860	411.37677	648.71979	1384.85999	98.01027	749.98114	1286.00928	236.07401	749.48193	1143.04138	459.86963	761.94537	1051.92896	471.65625	689.85815	1016.21674	424.57193	805.46570	872.15088	437.15878	818.03680	809.51459	401.72018	763.41333	784.78741	443.26596	873.20618	754.47705	416.89920	652.86279	1193.34265	20.85175	672.19531	1084.25757	14.20165	616.38794	1047.58350	74.12267	709.72253	917.74402	14.19012	738.85101	845.23822	43.98743	671.09985	823.17413	27.07360	765.67340	759.09222	15.97877
21820	87.27600	619.21503	1417.15063	278.69614	706.01459	1353.21057	411.34717	648.73230	1384.86975	97.97280	749.98334	1286.01355	236.05742	749.45447	1143.06812	459.86737	761.90826	1051.95520	471.67053	689.83911	1016.23297	424.53757	805.38550	872.15253	437.23654	817.94312	809.48761	401.77505	763.31946	784.81366	443.35376	873.15466	754.43054	417.10129	652.89410	1193.34558	20.82797	672.22461	1084.25537	14.19398	616.38519	1047.56592	74.08019	709.76044	917.75012	14.20219	738.86572	845.23059	43.99681	671.12622	823.16437	27.04175	765.72504	759.10034	16.01584
